Coordinates
nRows=26
nColumns=24

# SIMM Motion File Header:
name Coordinates
datacolumns 24
datarows 26
otherdata 1
range 3.73333333 4.15000000

Units are S.I. units (second, meters, Newtons, ...)
Angles are in degrees.

endheader
time	pelvis_tilt	pelvis_list	pelvis_rotation	pelvis_tx	pelvis_ty	pelvis_tz	hip_flexion_r	hip_adduction_r	hip_rotation_r	knee_angle_r	ankle_angle_r	subtalar_angle_r	mtp_angle_r	hip_flexion_l	hip_adduction_l	hip_rotation_l	knee_angle_l	ankle_angle_l	subtalar_angle_l	mtp_angle_l	lumbar_extension	lumbar_bending	lumbar_rotation
      3.73333333	      5.01178254	     -2.36715400	     -3.93173736	      0.59782462	      1.00695639	      0.01586276	    -20.63083609	      0.62297941	     -0.10792218	    -16.08928884	     18.70324803	      9.24497263	      0.00000000	     20.02618499	     -5.58608991	     -6.35698691	    -11.36474266	     -2.30374003	      9.22743103	      0.00000000	    -17.06451614	     -2.84163185	      2.39421372
      3.75000000	      5.21436813	     -1.96697617	     -3.89268843	      0.60166433	      1.00784635	      0.01176826	    -20.37197687	     -0.32526927	     -1.01414009	    -19.49450765	     18.05295228	     10.58322769	      0.00000000	     19.87076180	     -4.93653482	     -6.03923955	    -13.85418599	     -2.82518365	      9.18057275	      0.00000000	    -17.03817534	     -3.46788272	      2.21726572
      3.76666667	      5.34982102	     -1.65249637	     -3.89542254	      0.60544732	      1.00901768	      0.00824788	    -19.58457616	     -1.15379323	     -1.72242566	    -23.61111526	     16.68293421	     11.50630950	      0.00000000	     19.55869634	     -4.42610899	     -5.64378862	    -15.99848773	     -2.92424079	      8.72444902	      0.00000000	    -16.88458013	     -4.04254937	      2.33285689
      3.78333333	      5.56165878	     -1.27335779	     -3.90787097	      0.60890914	      1.01078587	      0.00439704	    -18.30529182	     -1.97851015	     -2.00771306	    -28.49663834	     14.65328094	     11.27750671	      0.00000000	     18.95102300	     -3.88601179	     -5.69545478	    -17.79706657	     -2.60802278	      8.65736489	      0.00000000	    -16.84618809	     -4.75992973	      2.65937596
      3.80000000	      5.80164661	     -0.88285612	     -4.00307605	      0.61184205	      1.01304639	      0.00051231	    -16.37501103	     -2.85452056	     -2.25046080	    -34.19976052	     11.48665705	     10.53147659	      0.00000000	     17.99442763	     -3.35355113	     -6.09616450	    -19.01610328	     -2.03644823	      8.88144343	      0.00000000	    -16.83777002	     -5.37835414	      2.60356913
      3.81666667	      5.89506345	     -0.40878152	     -4.21439641	      0.61369155	      1.01526955	     -0.00342431	    -13.72661729	     -3.90321247	     -2.57111815	    -40.31538292	      7.38228467	      9.22423109	      0.00000000	     16.94465813	     -2.69525583	     -6.56079326	    -19.67603812	     -1.38946463	      9.00309430	      0.00000000	    -16.81338906	     -6.03001673	      2.64085643
      3.83333333	      5.92690331	      0.06623554	     -4.36061398	      0.61505464	      1.01762286	     -0.00715142	    -10.79991304	     -4.97469661	     -3.10477131	    -46.18423722	      2.72491768	      7.35981671	      0.00000000	     15.81415336	     -1.95458070	     -6.76959867	    -20.00711483	     -0.61650287	      8.94563772	      0.00000000	    -16.76556350	     -6.57539289	      2.45479559
      3.85000000	      5.94569008	      0.41445403	     -4.43615567	      0.61604040	      1.02005189	     -0.01099169	     -7.86640306	     -5.78481304	     -3.46867385	    -51.44845318	     -1.63216946	      4.66640478	      0.00000000	     14.65072756	     -1.29354037	     -6.85344754	    -20.22278336	      0.28573637	      8.93876324	      0.00000000	    -16.72199440	     -6.87144629	      2.23716598
      3.86666667	      6.13557331	      0.51398562	     -4.23557412	      0.61605568	      1.02321788	     -0.01481661	     -5.24981559	     -6.14542170	     -3.88843558	    -55.96316935	     -4.67273365	      1.66059086	      0.00000000	     13.09007057	     -0.76860883	     -6.49373731	    -19.85755387	      1.00085103	      8.76894458	      0.00000000	    -17.04563968	     -6.82923316	      1.30085225
      3.88333333	      6.25670976	      0.50788900	     -4.36524444	      0.61587257	      1.02636533	     -0.01796903	     -2.57129348	     -6.30228993	     -3.87233436	    -60.00942265	     -5.81382508	     -1.15564935	      0.00000000	     11.53290788	     -0.49228392	     -6.71452153	    -19.43502304	      1.79525184	      8.98752977	      0.00000000	    -17.22908523	     -6.74794250	      0.92971971
      3.90000000	      6.46305330	     -0.05136149	     -3.56338681	      0.61657303	      1.03042174	     -0.02139265	     -0.64694021	     -5.65950080	     -4.78736661	    -62.82062601	     -5.63932974	     -3.64468639	      0.00000000	      9.77332398	     -0.69863775	     -6.10920935	    -18.79302791	      2.55034254	      9.48242031	      0.00000000	    -17.48919577	     -5.82737210	     -0.14958433
      3.91666667	      6.45244692	     -0.28135271	     -3.49933932	      0.61514112	      1.03352011	     -0.02409705	      1.99479167	     -5.38830016	     -4.90093573	    -65.65361783	     -4.49229889	     -5.25498534	      0.00000000	      8.23060346	     -0.66739368	     -6.15697042	    -17.91490283	      3.06753155	      9.61579820	      0.00000000	    -17.62403115	     -5.40827132	     -0.45448411
      3.93333333	      6.47132962	     -0.58775586	     -3.23696526	      0.61376190	      1.03673088	     -0.02670161	      4.39919465	     -4.99054113	     -5.22679109	    -67.62540990	     -3.29278296	     -6.21770400	      0.00000000	      6.56287066	     -0.72448396	     -6.13661229	    -16.81693685	      3.48122746	      9.86460876	      0.00000000	    -17.64698446	     -4.83666024	     -1.26165105
      3.95000000	      6.54348924	     -0.77290432	     -2.95715905	      0.61226821	      1.03970332	     -0.02950027	      6.63413847	     -4.81861017	     -5.62495009	    -68.89443809	     -2.18917974	     -6.27699203	      0.00000000	      4.77591872	     -0.63789087	     -6.04195506	    -15.54971919	      3.80132322	     10.03129702	      0.00000000	    -17.85736772	     -4.40858236	     -1.91216613
      3.96666667	      6.47542910	     -1.01639778	     -2.67861417	      0.61025939	      1.04202303	     -0.03140756	      8.94143538	     -4.43147309	     -5.89176804	    -69.45432534	     -1.36132574	     -6.04702473	      0.00000000	      3.24719693	     -0.73638285	     -6.09542513	    -14.44841725	      4.19588959	     10.51366169	      0.00000000	    -17.97660398	     -3.96628423	     -2.23266504
      3.98333333	      6.36040866	     -1.41262030	     -2.15344382	      0.60842175	      1.04398113	     -0.03373506	     11.02957416	     -3.98651154	     -6.44782724	    -69.17734614	     -0.61092319	     -5.07506860	      0.00000000	      1.72882549	     -0.99592773	     -5.92727412	    -13.22721849	      4.58636953	     11.06486706	      0.00000000	    -18.01562208	     -3.22185716	     -2.96972915
      4.00000000	      6.15004235	     -1.43254957	     -1.95541788	      0.60556563	      1.04483326	     -0.03564592	     13.31413062	     -3.90560796	     -6.52672977	    -68.51911600	      0.25162681	     -3.63440192	      0.00000000	      0.55284414	     -0.89906614	     -6.05051939	    -12.38048055	      5.05062024	     11.60026105	      0.00000000	    -17.95437151	     -2.95261071	     -3.51833999
      4.01666667	      6.06822396	     -1.95435478	     -1.40309902	      0.60331239	      1.04598012	     -0.03720107	     14.97218868	     -3.29713416	     -7.02700066	    -66.74856069	      0.93717160	     -2.26158953	      0.00000000	     -0.84965420	     -1.41728097	     -6.09971541	    -11.39760817	      5.55008746	     12.57548224	      0.00000000	    -18.16379284	     -2.12938537	     -4.09135895
      4.03333333	      5.74685319	     -2.11728764	     -0.99952721	      0.60071977	      1.04610822	     -0.03871906	     16.78334738	     -3.07470209	     -7.26224373	    -64.45494585	      1.75479111	     -0.96915277	      0.00000000	     -1.93302294	     -1.52490527	     -6.10252818	    -10.48937495	      6.00964438	     13.21344471	      0.00000000	    -18.06774922	     -1.71380579	     -4.75780755
      4.05000000	      5.52777941	     -2.20120505	     -0.87920719	      0.59763346	      1.04601647	     -0.03988335	     18.31269783	     -2.86122076	     -7.21039458	    -61.45062074	      2.47378180	     -0.23894666	      0.00000000	     -3.10652133	     -1.51102346	     -6.19968860	     -9.63088605	      6.45400532	     13.57448520	      0.00000000	    -18.15868965	     -1.41485363	     -4.93948690
      4.06666667	      5.25106717	     -2.25103822	     -1.19591517	      0.59461906	      1.04533899	     -0.04120109	     19.67826881	     -2.63354881	     -6.84450906	    -57.72674699	      3.00039516	     -0.08358056	      0.00000000	     -4.22433793	     -1.36459991	     -6.62119536	     -8.88391550	      7.03193205	     13.73096224	      0.00000000	    -18.14123746	     -1.10405936	     -4.93002657
      4.08333333	      5.15708955	     -2.45965801	     -0.74820546	      0.59223489	      1.04482274	     -0.04213095	     20.23480650	     -2.35024728	     -7.28194481	    -52.97515041	      3.18488296	     -0.88918730	      0.00000000	     -5.44298714	     -1.53080284	     -6.32529665	     -8.24473130	      7.66237127	     13.95215896	      0.00000000	    -18.27242388	     -0.59261463	     -5.28373556
      4.10000000	      4.82057921	     -2.35357146	     -0.84521796	      0.58901222	      1.04316173	     -0.04222439	     20.98714846	     -2.15504108	     -7.06049451	    -47.74032890	      2.91034442	     -2.46629797	      0.00000000	     -6.39455236	     -1.31348001	     -6.36773399	     -7.61357812	      8.26942958	     13.90411449	      0.00000000	    -18.28898385	     -0.56287506	     -5.35345405
      4.11666667	      4.66668568	     -2.36023521	     -0.56681189	      0.58704610	      1.04151086	     -0.04231119	     21.01999200	     -1.91936660	     -7.19026325	    -41.71186497	      2.31486879	     -4.32545264	      0.00000000	     -7.47241388	     -1.31619374	     -6.26049462	     -7.21583195	      9.06806102	     14.15204462	      0.00000000	    -18.33140223	     -0.35526107	     -5.57576034
      4.13333333	      4.45338154	     -2.14969312	     -0.65424989	      0.58427913	      1.03940480	     -0.04214726	     20.88324774	     -1.83750088	     -6.97817787	    -35.08349548	      1.52793373	     -5.77222999	      0.00000000	     -8.54803413	     -1.02101532	     -6.35593292	     -6.64787587	      9.72100484	     14.19297971	      0.00000000	    -18.36347154	     -0.40167466	     -5.65041259
      4.15000000	      4.42128979	     -1.79389152	     -0.70164185	      0.58194237	      1.03700875	     -0.04186595	     20.34777977	     -1.85617442	     -6.43609522	    -28.23336179	      0.81080089	     -6.85573928	      0.00000000	     -9.78888359	     -0.58890054	     -6.38352238	     -6.18921199	     10.44647823	     14.20291342	      0.00000000	    -18.57365613	     -0.61686891	     -5.65386062
